<?xml version="1.0" ?><svg xmlns="http://www.w3.org/2000/svg" xmlns:xlink="http://www.w3.org/1999/xlink" version="1.1" viewBox="0 0 512 512" style="enable-background:new 0 0 512 512;" xml:space="preserve"><g id="_x30_7_Builder_x2C__Constructor_x2C__Architect_x2C__Helmet_x2C__Project"><g><path style="fill:#FFFFFF;" d="M381,326.983c-10.645,0-242.838,0-250,0c-38.66,0-70,31.34-70,70v104h390v-104    C451,358.325,419.661,326.983,381,326.983z"/><polygon style="fill:#FFFFFF;" points="211,288.633 211,326.983 256,380.983 301,326.983 301,288.633   "/><path style="fill:#FFFFFF;" d="M166,150.983l12,20l-12,20h-20c-11.04,0-20-8.96-20-20c0-11.05,8.95-20,20-20    C151.949,150.983,159.927,150.983,166,150.983z"/><path style="fill:#FFFFFF;" d="M366,150.983c11.05,0,20,8.95,20,20c0,11.04-8.96,20-20,20h-20l-12-18l12-22    C352.076,150.983,360.051,150.983,366,150.983z"/><path style="fill:#FFFFFF;" d="M346,210.673c0,49.704-40.288,90-90,90c-49.705,0-90-40.279-90-90c0-7.286,0-53.158,0-59.69l81-11    l99,11C346,157.411,346,203.718,346,210.673z"/><path style="fill:#9DCAFC;" d="M361,110.983c0-42.92-27.03-79.52-65-93.7h-80c-38.181,14.24-65,51.022-65,93.7    c-11.04,0-20,8.96-20,20c0,11.05,8.95,20,20,20c6.182,0,201.601,0,210,0c5.52,0,10.52-2.24,14.14-5.86    C387.627,132.636,378.875,110.983,361,110.983z"/><path style="fill:#FFFFFF;" d="M256,10.983l5,42l-5,48c-22.09,0-40-17.91-40-40v-43.7C236.486,9.634,253.201,11.197,256,10.983z"/><path style="fill:#FFFFFF;" d="M296,17.283v43.7c0,22.09-17.91,40-40,40v-90C258.808,11.197,275.424,9.574,296,17.283z"/><path style="fill:#9DCAFC;" d="M401,430.983v30H111v-30c0-16.56,13.44-30,30-30v-74h40v84h150v-84h40v74    C387.57,400.983,401,414.413,401,430.983z"/><g id="XMLID_6_"><path style="fill:#4269A7;" d="M381,316.983c-15.154,0-55.418,0-70,0v-22.799c27.237-18.017,45-48.958,45-83.511v-9.69h10     c16.542,0,30-13.458,30-30c0-9.085-4.065-17.234-10.465-22.74c11.462-16.268,4.13-39.165-14.849-45.656     C366.655,48.997,326.294,1.952,252.271,1.026c-57.833-0.733-106.616,43.686-110.957,101.548     c-18.951,6.445-26.333,29.363-14.837,45.658C120.07,153.738,116,161.892,116,170.983c0,16.542,13.458,30,30,30h10v9.69     c0,35.198,18.004,65.741,45,83.522v22.788c-14.599,0-54.985,0-70,0c-44.112,0-80,35.888-80,80v104c0,5.523,4.477,10,10,10h390     c5.523,0,10-4.477,10-10v-104C461,352.603,425.032,316.983,381,316.983z M366,180.983h-10v-20c3.497,0,6.503,0,10,0     c5.514,0,10,4.486,10,10S371.514,180.983,366,180.983z M286,24.496v36.487c0,13.036-8.361,24.152-20,28.28V21.121     C272.986,21.502,279.727,22.682,286,24.496z M226,60.983V24.51c6.272-1.822,12.951-2.986,20-3.377v68.129     C234.361,85.135,226,74.019,226,60.983z M151,120.983c5.523,0,10-4.477,10-10c0-33.886,18.536-62.621,45-77.941v27.941     c0,27.57,22.43,50,50,50s50-22.43,50-50V33.037c27.137,15.761,45,45.241,45,77.946c0,5.523,4.477,10,10,10     c8.93,0,13.318,10.821,7.069,17.069c-1.891,1.89-4.401,2.931-7.069,2.931c-8.497,0-203.884,0-210,0c-5.514,0-10-4.486-10-10     C141,125.461,145.479,120.983,151,120.983z M146,180.983c-5.514,0-10-4.486-10-10s4.486-10,10-10c3.497,0,6.503,0,10,0v20H146z      M176,210.673c0-9.448,0-37.728,0-49.69h160c0,8.095,0,37.942,0,49.69c0,43.488-35.225,80-80,80     C212.129,290.673,176,255.215,176,210.673z M291,304.379v18.395l-35,34.222l-35-34.222v-18.416     C243.704,312.844,268.722,312.71,291,304.379z M206.924,336.983l42.085,41.15c3.887,3.8,10.095,3.8,13.982,0l42.085-41.15H321v64     H191v-64H206.924z M171,336.983v74c0,5.523,4.477,10,10,10h150c5.523,0,10-4.477,10-10v-74h20v64c0,5.523,4.477,10,10,10     c11.028,0,20,8.972,20,20v20H121v-20c0-11.046,8.955-20,20-20c5.523,0,10-4.477,10-10v-64H171z M441,490.983H71v-94     c0-33.084,26.916-60,60-60v55.254c-16.814,4.312-30,19.685-30,38.746v30c0,5.523,4.477,10,10,10h290c5.523,0,10-4.477,10-10v-30     c0-18.604-12.767-34.283-30-38.734v-55.266c33.286,0,60,26.973,60,60V490.983z"/><path style="fill:#4269A7;" d="M279,259.638c3.314-4.418,2.418-10.686-2-14c-4.418-3.313-10.687-2.418-14,2     c-3.504,4.671-10.497,4.67-14,0c-3.314-4.418-9.581-5.314-14-2c-4.418,3.314-5.314,9.582-2,14     C244.512,274.987,267.494,274.979,279,259.638z"/><path style="fill:#4269A7;" d="M221,180.983c-5.523,0-10,4.477-10,10v10c0,5.523,4.477,10,10,10s10-4.477,10-10v-10     C231,185.46,226.523,180.983,221,180.983z"/><path style="fill:#4269A7;" d="M291,210.983c5.523,0,10-4.477,10-10v-10c0-5.523-4.477-10-10-10s-10,4.477-10,10v10     C281,206.506,285.477,210.983,291,210.983z"/></g></g></g><g id="Layer_1"/></svg>